# xmcd
#
# Track frame offsets:
#	150
#	13580
#	31462
#	49950
#	63212
#	77527
#	91042
#	103982
#	119352
#	136387
#
# Disc length: 2004 seconds
#
# Revision: 2
# Processed by: cddbd v1.5.2PL0 Copyright (c) Steve Scherf et al.
# Submitted via: EasyCDDAExtractor 15.3.0.1
#
DISCID=7c07d20a
DTITLE=Pandora
DYEAR=1985
DGENRE=Latin
TTITLE0=Cuando No Estas Conmigo
TTITLE1=Tarde O Temprano
TTITLE2=Como Te Va Mi Amor
TTITLE3=Dejame
TTITLE4=De Mil Maneras
TTITLE5=Todo Por Amor
TTITLE6=Quiereme Mas
TTITLE7=Para Escribir Tu Nombre
TTITLE8=Que Facil Es
TTITLE9=Volver A Empezar
EXTD=
EXTT0=
EXTT1=
EXTT2=
EXTT3=
EXTT4=
EXTT5=
EXTT6=
EXTT7=
EXTT8=
EXTT9=
PLAYORDER=
